<svg width="48mm" height="48mm" version="1.1" viewBox="0 0 48 48" xml:space="preserve"
     xmlns="http://www.w3.org/2000/svg">
    <path d="m27.237 0.30698c-0.25965 0-0.46862 0.20897-0.46862 0.46862v10.41l-7.5565 1.9951v4.6897l7.5565-1.9985v19.599c-0.64306-0.35827-1.4504-0.52717-2.3362-0.52717-3.4684 0-6.3267 0.65926-8.8108 2.3466-1.4998 1.0311-2.3906 2.6695-2.953 4.4037-0.28119 0.84366-0.51683 1.7834-0.51683 2.6739 0 2.3435 1.7342 3.3252 3.8903 3.3252 3.4684 0 6.2819-0.65579 8.766-2.3431 1.4998-1.0311 2.4388-2.6695 3.0013-4.4037 0.28119-0.84366 0.46862-1.7834 0.46862-2.6739 0-0.10569-0.0073-0.20651-0.014-0.30666 0.016-0.04734 0.02734-0.09569 0.02734-0.14816v-22.346l7.5565-1.9985v-4.6862l-7.5565 1.9951v-10.006c0-0.25965-0.20897-0.46862-0.46862-0.46862zm-2.4775 36.046c0.04668-7.27e-4 0.09442 0 0.14129 0 0.79634 0 1.5925 0.52137 1.8676 1.3163v0.14816c0 0.10529 0.03467 0.20104 0.09302 0.27912 0.0054 0.05801 0.0067 0.11596 0.0067 0.17577 0 0.46869-0.18537 0.93789-0.51343 1.3128-0.93741 1.1718-3.1415 2.5311-4.8757 3.6559-1.7342 1.1249-3.8879 2.5794-5.3409 3.0013-0.1875 0.04668-0.37761 0.04467-0.56511 0.04467-0.98428 0-1.9675-0.79785-1.9675-1.9227 0-0.46869 0.14049-0.93444 0.46862-1.3094 0.93741-1.1718 3.1415-2.5311 4.8757-3.6559 1.7342-1.1249 3.9362-2.5794 5.3892-3.0013 0.14063-0.03467 0.27979-0.04268 0.42041-0.04467z"
          stroke-width=".04687"/>
    </svg>
