<svg width="48mm" height="48mm" version="1.1" viewBox="0 0 48 48" xml:space="preserve"
     xmlns="http://www.w3.org/2000/svg">
    <path d="m26.933 0.13384c-0.25372 0-0.45785 0.20414-0.45785 0.45785v6.7226l-7.3851 1.9503v4.5801l7.3851-1.9503v4.6943l-7.3851 1.9503v4.5796l7.3851-1.9503v4.6943l-7.3851 1.9503v4.5796l7.3851-1.9503v5.4808c-0.62857-0.35063-1.4169-0.51366-2.2831-0.51366-3.389 0-6.1826 0.64108-8.6098 2.2898-1.4655 1.0075-2.3355 2.6107-2.8851 4.3052-0.27478 0.82435-0.50384 1.74-0.50384 2.6102 0 2.2899 1.6941 3.252 3.8008 3.252 3.389 0 6.1371-0.64108 8.5643-2.2898 1.4655-1.0075 2.3815-2.6107 2.9311-4.3052 0.27478-0.82435 0.45785-1.7405 0.45785-2.6107 0-0.10179-0.004441-0.20005-0.010852-0.29662 0.016288-0.047149 0.026872-0.097062 0.026872-0.14986v-8.1649l7.3851-1.9503v-4.5801l-7.3851 1.9503v-4.6943l7.3851-1.9503v-4.5796l-7.3851 1.9503v-4.6943l7.3851-1.9503v-4.5796l-7.3851 1.9503v-6.3298c0-0.25372-0.20414-0.45785-0.45785-0.45785h-0.57258zm-2.2831 36.649c0.77861 0 1.5569 0.51022 1.8252 1.2878v0.14314c0 0.10162 0.033835 0.19438 0.0894 0.27027 0.005547 0.05787 0.008785 0.11637 0.008785 0.17622 0 0.45797-0.18275 0.91623-0.50333 1.2826-0.91595 1.1449-3.0685 2.4727-4.763 3.5719-1.6945 1.0991-3.8012 2.5189-5.2209 2.9311-0.18319 0.0458-0.36665 0.045992-0.54984 0.045992-0.96174 0-1.9234-0.77878-1.9234-1.8779 0-0.45797 0.13727-0.91571 0.45785-1.2821 0.91595-1.1449 3.0685-2.4733 4.763-3.5724 1.6945-1.0991 3.8471-2.5189 5.2669-2.9311 0.18319-0.0458 0.36613-0.045475 0.54932-0.045475z"
          fill="currentColor" stroke-width="11.449"/>
</svg>
