<svg width="32mm" height="32mm" version="1.2" viewBox="0 0 18.21 18.21" xmlns="http://www.w3.org/2000/svg">
    <g fill="currentColor">
        <path transform="matrix(3.4724 0 0 3.4724 5.7052 2.5003)" d="m0.04 0.2v-0.4l3.1254 0.19v0.4z"
              stroke="currentColor" stroke-linecap="round" stroke-linejoin="round" stroke-width=".08"/>
        <path transform="matrix(3.4724 0 0 3.4724 5.7052 5.313)" d="m0.04 0.2v-0.4l3.1254 0.19v0.4z"
              stroke="currentColor" stroke-linecap="round" stroke-linejoin="round" stroke-width=".08"/>
        <path d="m16.523 3.1465h0.17362c0.07695 0 0.1389 0.061948 0.1389 0.1389v10.33c0 0.07695-0.06195 0.1389-0.1389 0.1389h-0.17362c-0.07695 0-0.1389-0.06195-0.1389-0.1389v-10.33c0-0.076949 0.06195-0.1389 0.1389-0.1389z"
              stroke-width="3.4724"/>
        <path d="m16.415 13.751c0-0.33335-0.29168-0.56948-0.58337-0.56948-0.05556 0-0.11112 0-0.16668 0.01389-0.43058 0.12501-1.0834 0.55559-1.5973 0.88895s-1.1667 0.73616-1.4445 1.0834c-0.09723 0.11112-0.1389 0.25002-0.1389 0.38891 0 0.33335 0.29169 0.56948 0.58337 0.56948 0.05556 0 0.11112 0 0.16668-0.01389 0.43058-0.12501 1.0695-0.55559 1.5834-0.88895s1.1667-0.73616 1.4445-1.0834c0.09723-0.11112 0.15279-0.25002 0.15279-0.38891zm-0.72227-0.98617c0.63893 0 1.139 0.29168 1.139 0.98617 0 0.26391-0.05556 0.5417-0.1389 0.79172-0.16668 0.51392-0.44447 1.0001-0.88895 1.3056-0.73616 0.50003-1.5695 0.69449-2.5974 0.69449-0.63893 0-1.1529-0.29168-1.1529-0.98617 0-0.26391 0.06945-0.5417 0.15279-0.79172 0.16668-0.51392 0.43058-1.0001 0.87506-1.3056 0.73616-0.50003 1.5834-0.69449 2.6113-0.69449z"
              stroke-width=".01389"/>
        <path d="m5.8441 2.5138h0.17362c0.076949 0 0.1389 0.061948 0.1389 0.1389v9.2266c0 0.07695-0.061948 0.1389-0.1389 0.1389h-0.17362c-0.076949 0-0.1389-0.06195-0.1389-0.1389v-9.2266c0-0.076949 0.061948-0.1389 0.1389-0.1389z"
              stroke-width="3.4724"/>
        <path d="m5.7354 12.015c0-0.33335-0.29169-0.56948-0.58337-0.56948-0.055559 0-0.11112 0-0.16668 0.01389-0.43058 0.12501-1.0834 0.55559-1.5973 0.88895-0.51392 0.33336-1.1667 0.73616-1.4445 1.0834-0.097228 0.11112-0.1389 0.25002-0.1389 0.38891 0 0.33335 0.29169 0.56948 0.58337 0.56948 0.055559 0 0.11112 0 0.16668-0.01389 0.43058-0.12501 1.0695-0.55559 1.5834-0.88895 0.51392-0.33336 1.1667-0.73616 1.4445-1.0834 0.097228-0.11112 0.15279-0.25002 0.15279-0.38891zm-0.72227-0.98617c0.63893 0 1.139 0.29168 1.139 0.98617 0 0.26391-0.055559 0.5417-0.1389 0.79172-0.16668 0.51392-0.44447 1.0001-0.88895 1.3056-0.73616 0.50003-1.5695 0.69449-2.5974 0.69449-0.63893 0-1.1529-0.29168-1.1529-0.98617 0-0.26391 0.069449-0.5417 0.15279-0.79172 0.16668-0.51392 0.43058-1.0001 0.87506-1.3056 0.73616-0.50003 1.5834-0.69449 2.6113-0.69449z"
              stroke-width=".01389"/>
    </g>
</svg>
