<svg width="48mm" height="48mm" version="1.1" viewBox="0 0 48 48" xml:space="preserve"
     xmlns="http://www.w3.org/2000/svg"><path d="m27.243 0.24365c-0.26034 0-0.46988 0.20953-0.46988 0.46988v6.8996l-7.5767 2.0004v4.6988l7.5767-2.0004v4.8162l-7.5767 2.0004v4.6988l7.5767-2.0004v13.671c-0.64458-0.35876-1.4549-0.52517-2.3425-0.52517-3.4777 0-6.3436 0.65754-8.8344 2.3494-1.5039 1.0339-2.397 2.6801-2.9609 4.4189-0.28194 0.84592-0.5148 1.7847-0.5148 2.6776 0 2.3498 1.7389 3.3375 3.9007 3.3375 3.4777 0 6.2952-0.65754 8.786-2.3494 1.5039-1.0339 2.4453-2.6801 3.0093-4.4189 0.28194-0.84592 0.46988-1.7847 0.46988-2.6776 0-0.1053-0.0074-0.20766-0.01404-0.30748 0.01671-0.04814 0.02741-0.09808 0.02741-0.15203v-16.428l7.5802-2.0004v-4.6988l-7.5802 2.0004v-4.8162l7.5802-2.0004v-4.7022l-7.5797 2.0039v-6.4953c0-0.26034-0.20953-0.46988-0.46988-0.46988zm-2.4807 36.139c0.0468-7.29e-4 0.09119 0 0.1382 0 0.7961 0 1.5945 0.51982 1.8726 1.3129v0.15544c0 0.10557 0.03476 0.20158 0.09327 0.27987 0.0054 0.05817 0.01001 0.11974 0.01001 0.17965 0 0.46994-0.18927 0.93695-0.51821 1.3129-0.93991 1.1749-3.1499 2.5378-4.8888 3.6657-1.7388 1.1279-3.8983 2.5863-5.3552 3.0093-0.188 0.0468-0.37514 0.0448-0.56314 0.0448-0.98691 0-1.9762-0.79652-1.9762-1.9244 0-0.46994 0.14087-0.94041 0.46988-1.3163 0.93991-1.1749 3.1499-2.5378 4.8888-3.6657 1.7388-1.1279 3.9467-2.5863 5.4036-3.0093 0.141-0.03476 0.28401-0.04279 0.42495-0.0448z" stroke-width="11.749"/>
 </svg>
